<svg width="36" height="36" viewBox="0 0 36 36" fill="none" xmlns="http://www.w3.org/2000/svg">
<path d="M4.5 5.27344C4.5 4.61719 4.28906 4.07812 3.86719 3.65625C3.44531 3.23438 2.90625 3.02344 2.25 3.02344C1.59375 3.02344 1.05469 3.23438 0.632812 3.65625C0.210938 4.07812 0 4.61719 0 5.27344V28.8984C0.046875 30.4922 0.585938 31.8281 1.61719 32.9062C2.69531 33.9375 4.03125 34.4766 5.625 34.5234H33.75C34.4062 34.5234 34.9453 34.3125 35.3672 33.8906C35.7891 33.4688 36 32.9297 36 32.2734C36 31.6172 35.7891 31.0781 35.3672 30.6562C34.9453 30.2344 34.4062 30.0234 33.75 30.0234H5.625C4.92188 29.9766 4.54688 29.6016 4.5 28.8984V5.27344ZM33.1172 11.3906C33.5391 10.9219 33.75 10.3828 33.75 9.77344C33.75 9.16406 33.5391 8.625 33.1172 8.15625C32.6484 7.73438 32.1094 7.52344 31.5 7.52344C30.8906 7.52344 30.3516 7.73438 29.8828 8.15625L22.5 15.6094L18.4922 11.5312C18.0234 11.1094 17.4844 10.8984 16.875 10.8984C16.2656 10.8984 15.7266 11.1094 15.2578 11.5312L7.38281 19.4062C6.96094 19.875 6.75 20.4141 6.75 21.0234C6.75 21.6328 6.96094 22.1719 7.38281 22.6406C7.85156 23.0625 8.39062 23.2734 9 23.2734C9.60938 23.2734 10.1484 23.0625 10.6172 22.6406L16.875 16.3125L20.8828 20.3906C21.3516 20.8125 21.8906 21.0234 22.5 21.0234C23.1094 21.0234 23.6484 20.8125 24.1172 20.3906L33.1172 11.3906Z" fill="#6B7280"/>
</svg>
