<svg width="30" height="33" viewBox="0 0 30 33" fill="none" xmlns="http://www.w3.org/2000/svg">
<g clip-path="url(#clip0_83_62)">
<path d="M14.9922 5.10938C15.4297 5.10938 15.7891 5.25 16.0703 5.53125C16.3516 5.8125 16.4922 6.17188 16.4922 6.60938V9.60938H22.1172C23.0859 9.64062 23.8828 9.96875 24.5078 10.5938C25.1328 11.2188 25.4609 12.0156 25.4922 12.9844V25.7344C25.4609 26.7031 25.1328 27.5 24.5078 28.125C23.8828 28.75 23.0859 29.0781 22.1172 29.1094H7.86719C6.89844 29.0781 6.10156 28.75 5.47656 28.125C4.85156 27.5 4.52344 26.7031 4.49219 25.7344V12.9844C4.52344 12.0156 4.85156 11.2188 5.47656 10.5938C6.10156 9.96875 6.89844 9.64062 7.86719 9.60938H13.4922V6.60938C13.4922 6.17188 13.6328 5.8125 13.9141 5.53125C14.1953 5.25 14.5547 5.10938 14.9922 5.10938ZM9.74219 23.1094C9.27344 23.1406 9.02344 23.3906 8.99219 23.8594C9.02344 24.3281 9.27344 24.5781 9.74219 24.6094H11.2422C11.7109 24.5781 11.9609 24.3281 11.9922 23.8594C11.9609 23.3906 11.7109 23.1406 11.2422 23.1094H9.74219ZM14.2422 23.1094C13.7734 23.1406 13.5234 23.3906 13.4922 23.8594C13.5234 24.3281 13.7734 24.5781 14.2422 24.6094H15.7422C16.2109 24.5781 16.4609 24.3281 16.4922 23.8594C16.4609 23.3906 16.2109 23.1406 15.7422 23.1094H14.2422ZM18.7422 23.1094C18.2734 23.1406 18.0234 23.3906 17.9922 23.8594C18.0234 24.3281 18.2734 24.5781 18.7422 24.6094H20.2422C20.7109 24.5781 20.9609 24.3281 20.9922 23.8594C20.9609 23.3906 20.7109 23.1406 20.2422 23.1094H18.7422ZM12.3672 17.1094C12.3359 16.3906 12.0234 15.8438 11.4297 15.4688C10.8047 15.1562 10.1797 15.1562 9.55469 15.4688C8.96094 15.8438 8.64844 16.3906 8.61719 17.1094C8.64844 17.8281 8.96094 18.375 9.55469 18.75C10.1797 19.0625 10.8047 19.0625 11.4297 18.75C12.0234 18.375 12.3359 17.8281 12.3672 17.1094ZM19.4922 18.9844C20.2109 18.9531 20.7578 18.6406 21.1328 18.0469C21.4453 17.4219 21.4453 16.7969 21.1328 16.1719C20.7578 15.5781 20.2109 15.2656 19.4922 15.2344C18.7734 15.2656 18.2266 15.5781 17.8516 16.1719C17.5391 16.7969 17.5391 17.4219 17.8516 18.0469C18.2266 18.6406 18.7734 18.9531 19.4922 18.9844ZM2.24219 15.6094H2.99219V24.6094H2.24219C1.61719 24.5781 1.08594 24.3594 0.648438 23.9531C0.242187 23.5156 0.0234375 22.9844 -0.0078125 22.3594V17.8594C0.0234375 17.2344 0.242187 16.7031 0.648438 16.2656C1.08594 15.8594 1.61719 15.6406 2.24219 15.6094ZM27.7422 15.6094C28.3672 15.6406 28.8984 15.8594 29.3359 16.2656C29.7422 16.7031 29.9609 17.2344 29.9922 17.8594V22.3594C29.9609 22.9844 29.7422 23.5156 29.3359 23.9531C28.8984 24.3594 28.3672 24.5781 27.7422 24.6094H26.9922V15.6094H27.7422Z" fill="#2563EB"/>
</g>
<defs>
<clipPath id="clip0_83_62">
<rect width="30" height="24" fill="white" transform="translate(-0.0078125 4.59375)"/>
</clipPath>
</defs>
</svg>
