<svg width="18" height="14" viewBox="0 0 18 14" fill="none" xmlns="http://www.w3.org/2000/svg">
<path d="M10.9648 0.328125C10.7279 0.273438 10.5 0.300781 10.2812 0.410156C10.0807 0.519531 9.94401 0.692708 9.87109 0.929688L6.37109 13.1797C6.31641 13.4167 6.34375 13.6445 6.45312 13.8633C6.5625 14.0638 6.73568 14.2005 6.97266 14.2734C7.20964 14.3281 7.4375 14.3008 7.65625 14.1914C7.85677 14.082 7.99349 13.9089 8.06641 13.6719L11.5664 1.42188C11.6211 1.1849 11.5938 0.957031 11.4844 0.738281C11.375 0.537761 11.2018 0.401042 10.9648 0.328125ZM13.1523 3.60938C12.9883 3.79167 12.9062 4.0013 12.9062 4.23828C12.9062 4.47526 12.9883 4.6849 13.1523 4.86719L15.6133 7.30078L13.1523 9.73438C12.9883 9.91667 12.9062 10.1263 12.9062 10.3633C12.9062 10.6003 12.9883 10.8099 13.1523 10.9922C13.3346 11.1562 13.5443 11.2383 13.7812 11.2383C14.0182 11.2383 14.2279 11.1562 14.4102 10.9922L17.4727 7.92969C17.6367 7.7474 17.7188 7.53776 17.7188 7.30078C17.7188 7.0638 17.6367 6.85417 17.4727 6.67188L14.4102 3.60938C14.2279 3.44531 14.0182 3.36328 13.7812 3.36328C13.5443 3.36328 13.3346 3.44531 13.1523 3.60938ZM4.78516 3.60938C4.60286 3.44531 4.39323 3.36328 4.15625 3.36328C3.91927 3.36328 3.70964 3.44531 3.52734 3.60938L0.464844 6.67188C0.300781 6.85417 0.21875 7.0638 0.21875 7.30078C0.21875 7.53776 0.300781 7.7474 0.464844 7.92969L3.52734 10.9922C3.70964 11.1562 3.91927 11.2383 4.15625 11.2383C4.39323 11.2383 4.60286 11.1562 4.78516 10.9922C4.94922 10.8099 5.03125 10.6003 5.03125 10.3633C5.03125 10.1263 4.94922 9.91667 4.78516 9.73438L2.32422 7.30078L4.78516 4.86719C4.94922 4.6849 5.03125 4.47526 5.03125 4.23828C5.03125 4.0013 4.94922 3.79167 4.78516 3.60938Z" fill="#4B5563"/>
</svg>
