<svg width="19" height="14" viewBox="0 0 19 14" fill="none" xmlns="http://www.w3.org/2000/svg">
<g clip-path="url(#clip0_83_1183)">
<path d="M9.63281 9.48828C10.4531 9.47005 11.082 9.10547 11.5195 8.39453C11.9206 7.66536 11.9206 6.9362 11.5195 6.20703C11.082 5.49609 10.4531 5.13151 9.63281 5.11328C8.8125 5.13151 8.18359 5.49609 7.74609 6.20703C7.34505 6.9362 7.34505 7.66536 7.74609 8.39453C8.18359 9.10547 8.8125 9.47005 9.63281 9.48828ZM13.9258 8.17578C13.707 9.19661 13.2057 10.026 12.4219 10.6641C11.638 11.3203 10.7083 11.6576 9.63281 11.6758C8.55729 11.6576 7.6276 11.3203 6.84375 10.6641C6.0599 10.026 5.55859 9.19661 5.33984 8.17578H1.75781C1.5026 8.17578 1.29297 8.09375 1.12891 7.92969C0.964844 7.76562 0.882812 7.55599 0.882812 7.30078C0.882812 7.04557 0.964844 6.83594 1.12891 6.67188C1.29297 6.50781 1.5026 6.42578 1.75781 6.42578H5.33984C5.55859 5.40495 6.0599 4.57552 6.84375 3.9375C7.6276 3.28125 8.55729 2.94401 9.63281 2.92578C10.7083 2.94401 11.638 3.28125 12.4219 3.9375C13.2057 4.57552 13.707 5.40495 13.9258 6.42578H17.5078C17.763 6.42578 17.9727 6.50781 18.1367 6.67188C18.3008 6.83594 18.3828 7.04557 18.3828 7.30078C18.3828 7.55599 18.3008 7.76562 18.1367 7.92969C17.9727 8.09375 17.763 8.17578 17.5078 8.17578H13.9258Z" fill="#737373"/>
</g>
<defs>
<clipPath id="clip0_83_1183">
<rect width="17.5" height="14" fill="white" transform="translate(0.882812)"/>
</clipPath>
</defs>
</svg>
