<svg width="22" height="33" viewBox="0 0 22 33" fill="none" xmlns="http://www.w3.org/2000/svg">
<g clip-path="url(#clip0_83_74)">
<path d="M5.22656 5.10938C3.94531 5.14062 2.88281 5.57812 2.03906 6.42188C1.19531 7.26562 0.757812 8.32812 0.726562 9.60938V24.6094C0.757812 25.8906 1.19531 26.9531 2.03906 27.7969C2.88281 28.6406 3.94531 29.0781 5.22656 29.1094H18.7266H20.2266C20.6641 29.1094 21.0234 28.9688 21.3047 28.6875C21.5859 28.4062 21.7266 28.0469 21.7266 27.6094C21.7266 27.1719 21.5859 26.8125 21.3047 26.5312C21.0234 26.25 20.6641 26.1094 20.2266 26.1094V23.1094C20.6641 23.1094 21.0234 22.9688 21.3047 22.6875C21.5859 22.4062 21.7266 22.0469 21.7266 21.6094V6.60938C21.7266 6.17188 21.5859 5.8125 21.3047 5.53125C21.0234 5.25 20.6641 5.10938 20.2266 5.10938H18.7266H5.22656ZM5.22656 23.1094H17.2266V26.1094H5.22656C4.78906 26.1094 4.42969 25.9688 4.14844 25.6875C3.86719 25.4062 3.72656 25.0469 3.72656 24.6094C3.72656 24.1719 3.86719 23.8125 4.14844 23.5312C4.42969 23.25 4.78906 23.1094 5.22656 23.1094ZM6.72656 11.8594C6.75781 11.3906 7.00781 11.1406 7.47656 11.1094H16.4766C16.9453 11.1406 17.1953 11.3906 17.2266 11.8594C17.1953 12.3281 16.9453 12.5781 16.4766 12.6094H7.47656C7.00781 12.5781 6.75781 12.3281 6.72656 11.8594ZM7.47656 14.1094H16.4766C16.9453 14.1406 17.1953 14.3906 17.2266 14.8594C17.1953 15.3281 16.9453 15.5781 16.4766 15.6094H7.47656C7.00781 15.5781 6.75781 15.3281 6.72656 14.8594C6.75781 14.3906 7.00781 14.1406 7.47656 14.1094Z" fill="#9333EA"/>
</g>
<defs>
<clipPath id="clip0_83_74">
<rect width="21" height="24" fill="white" transform="translate(0.726562 4.59375)"/>
</clipPath>
</defs>
</svg>
