<svg width="11" height="13" viewBox="0 0 11 13" fill="none" xmlns="http://www.w3.org/2000/svg">
<path d="M6.375 0.175781C5.22656 0.19401 4.19661 0.476562 3.28516 1.02344C2.35547 1.55208 1.61719 2.28125 1.07031 3.21094C0.541667 4.1224 0.268229 5.15234 0.25 6.30078C0.268229 7.44922 0.550781 8.47917 1.09766 9.39062C1.6263 10.3203 2.35547 11.0495 3.28516 11.5781C4.19661 12.125 5.22656 12.4076 6.375 12.4258C8.07031 12.3893 9.48307 11.8151 10.6133 10.7031C10.7591 10.5391 10.7865 10.3659 10.6953 10.1836C10.6042 10.0013 10.4492 9.91927 10.2305 9.9375C9.97526 9.99219 9.70182 10.0195 9.41016 10.0195C8.0612 9.98307 6.93099 9.50911 6.01953 8.59766C5.1263 7.70443 4.66146 6.57422 4.625 5.20703C4.625 4.29557 4.84375 3.47526 5.28125 2.74609C5.73698 2.01693 6.32943 1.44271 7.05859 1.02344C7.24089 0.914062 7.3138 0.75 7.27734 0.53125C7.22266 0.348958 7.08594 0.239583 6.86719 0.203125C6.70312 0.184896 6.52995 0.175781 6.34766 0.175781H6.375Z" fill="#4338CA"/>
</svg>
