<svg width="33" height="32" viewBox="0 0 33 32" fill="none" xmlns="http://www.w3.org/2000/svg">
<path d="M32.5781 16C32.5781 7.16344 25.4147 0 16.5781 0C7.74157 0 0.578125 7.16344 0.578125 16C0.578125 24.8366 7.74157 32 16.5781 32C25.4147 32 32.5781 24.8366 32.5781 16Z" fill="#F5F5F5"/>
<path d="M13.217 18.0144V11.0469H14.9263V18.0144C14.9263 18.674 14.7855 19.2361 14.504 19.7006C14.2226 20.1652 13.8378 20.5207 13.3494 20.7672C12.861 21.0135 12.3055 21.1367 11.6831 21.1367C11.0523 21.1367 10.492 21.0294 10.0021 20.8148C9.51224 20.6001 9.12829 20.2719 8.85022 19.8301C8.57215 19.3883 8.43311 18.829 8.43311 18.1522H10.1517C10.1517 18.5413 10.215 18.8557 10.3414 19.0953C10.468 19.3349 10.6465 19.5089 10.877 19.6172C11.1075 19.7255 11.3762 19.7797 11.6831 19.7797C11.9826 19.7797 12.2475 19.7124 12.478 19.5777C12.7085 19.443 12.8894 19.2437 13.0204 18.9799C13.1515 18.716 13.217 18.3942 13.217 18.0144ZM19.7916 21H17.6658L17.6794 19.643H19.7916C20.4088 19.643 20.9255 19.5084 21.3417 19.2392C21.7579 18.97 22.0723 18.5846 22.2848 18.0831C22.4973 17.5816 22.6034 16.9844 22.6034 16.2915V15.7485C22.6034 15.2123 22.543 14.7371 22.4222 14.3229C22.3014 13.9087 22.1238 13.5595 21.8896 13.2753C21.6555 12.9911 21.3683 12.776 21.028 12.6299C20.6876 12.4838 20.2972 12.4107 19.8569 12.4107H17.6248V11.0469H19.8569C20.517 11.0469 21.1205 11.1576 21.6675 11.3792C22.2145 11.6006 22.6869 11.9186 23.0848 12.3332C23.4829 12.7478 23.7897 13.2442 24.0051 13.8224C24.2207 14.4005 24.3285 15.0471 24.3285 15.7622V16.2915C24.3285 17.0049 24.2207 17.6511 24.0051 18.2302C23.7897 18.8091 23.4819 19.3048 23.0818 19.7171C22.6818 20.1294 22.2041 20.4463 21.6487 20.6678C21.0933 20.8893 20.4743 21 19.7916 21ZM18.616 11.0469V21H16.8999V11.0469H18.616Z" fill="#0A0A0A"/>
</svg>
