<svg width="16" height="14" viewBox="0 0 16 14" fill="none" xmlns="http://www.w3.org/2000/svg">
<g clip-path="url(#clip0_83_893)">
<path d="M2.54297 6.42578L0.109375 10.582V2.92578C0.127604 2.43359 0.300781 2.02344 0.628906 1.69531C0.957031 1.36719 1.36719 1.19401 1.85938 1.17578H5.08594C5.5599 1.17578 5.97005 1.34896 6.31641 1.69531L7.02734 2.40625C7.3737 2.7526 7.79297 2.92578 8.28516 2.92578H11.4844C11.9766 2.94401 12.3867 3.11719 12.7148 3.44531C13.043 3.77344 13.2161 4.18359 13.2344 4.67578V5.55078H4.04688C3.39062 5.56901 2.88932 5.86068 2.54297 6.42578ZM3.28125 6.86328C3.46354 6.58984 3.71875 6.44401 4.04688 6.42578H14.9844C15.3125 6.44401 15.5677 6.58984 15.75 6.86328C15.8958 7.15495 15.8958 7.44661 15.75 7.73828L12.6875 12.9883C12.5052 13.2617 12.25 13.4076 11.9219 13.4258H0.984375C0.65625 13.4076 0.401042 13.2617 0.21875 12.9883C0.0729167 12.6966 0.0729167 12.4049 0.21875 12.1133L3.28125 6.86328Z" fill="#6B7280"/>
</g>
<defs>
<clipPath id="clip0_83_893">
<rect width="15.75" height="14" fill="white"/>
</clipPath>
</defs>
</svg>
