<svg width="18" height="19" viewBox="0 0 18 19" fill="none" xmlns="http://www.w3.org/2000/svg">
<g clip-path="url(#clip0_83_41)">
<path d="M6.11719 14.9726C6.09375 15.0664 6.03516 15.1133 5.94141 15.1133C5.80078 15.1133 5.73047 15.0664 5.73047 14.9726C5.75391 14.9023 5.8125 14.8672 5.90625 14.8672C6.02344 14.8672 6.09375 14.9023 6.11719 14.9726ZM5.02734 14.832C5.00391 14.9023 5.05078 14.9609 5.16797 15.0078C5.28516 15.0312 5.35547 15.0078 5.37891 14.9375C5.40234 14.8437 5.35547 14.7851 5.23828 14.7617C5.12109 14.7383 5.05078 14.7617 5.02734 14.832ZM6.57422 14.7617C6.45703 14.7851 6.39844 14.8437 6.39844 14.9375C6.42188 15.0078 6.49219 15.043 6.60938 15.043C6.72656 14.9961 6.78516 14.9375 6.78516 14.8672C6.76172 14.7969 6.69141 14.7617 6.57422 14.7617ZM8.89453 1.29687C6.38672 1.34374 4.33594 2.16405 2.74219 3.7578C1.14844 5.35155 0.328125 7.39062 0.28125 9.87499C0.304688 11.8672 0.855469 13.6133 1.93359 15.1133C3.01172 16.6133 4.45312 17.668 6.25781 18.2773C6.67969 18.3008 6.87891 18.1601 6.85547 17.8555C6.85547 17.7617 6.85547 17.5859 6.85547 17.3281C6.85547 16.7891 6.85547 16.25 6.85547 15.7109C6.80859 15.7109 6.58594 15.7344 6.1875 15.7812C5.76562 15.8047 5.32031 15.7578 4.85156 15.6406C4.38281 15.5 4.05469 15.1719 3.86719 14.6562C3.86719 14.6094 3.77344 14.4219 3.58594 14.0937C3.39844 13.7891 3.16406 13.543 2.88281 13.3555C2.83594 13.332 2.74219 13.2383 2.60156 13.0742C2.4375 12.9336 2.55469 12.8516 2.95312 12.8281C2.97656 12.8047 3.14062 12.8516 3.44531 12.9687C3.75 13.0625 4.03125 13.3203 4.28906 13.7422C4.71094 14.375 5.16797 14.6914 5.66016 14.6914C6.17578 14.6914 6.57422 14.6211 6.85547 14.4805C6.94922 13.918 7.13672 13.5195 7.41797 13.2851C6.38672 13.2383 5.48438 12.9805 4.71094 12.5117C3.9375 12.0664 3.52734 11.0234 3.48047 9.3828C3.48047 8.91405 3.55078 8.52733 3.69141 8.22265C3.80859 7.91796 4.00781 7.62499 4.28906 7.34374C4.24219 7.20312 4.19531 6.92187 4.14844 6.49999C4.10156 6.07812 4.18359 5.56249 4.39453 4.95312C4.81641 4.8828 5.30859 5.01171 5.87109 5.33983C6.45703 5.64452 6.77344 5.83202 6.82031 5.90233C7.52344 5.6914 8.26172 5.58593 9.03516 5.58593C9.78516 5.58593 10.5234 5.6914 11.25 5.90233C11.25 5.8789 11.4023 5.77343 11.707 5.58593C11.9883 5.39843 12.3164 5.23437 12.6914 5.09374C13.0664 4.92968 13.3945 4.8828 13.6758 4.95312C13.8867 5.56249 13.9688 6.07812 13.9219 6.49999C13.875 6.92187 13.8164 7.20312 13.7461 7.34374C14.0273 7.62499 14.25 7.91796 14.4141 8.22265C14.5781 8.52733 14.6602 8.91405 14.6602 9.3828C14.6367 10.5078 14.4375 11.3398 14.0625 11.8789C13.6641 12.3945 13.1602 12.7461 12.5508 12.9336C11.9414 13.1211 11.2969 13.2383 10.6172 13.2851C10.9922 13.543 11.1914 14.082 11.2148 14.9023C11.2148 15.7695 11.2148 16.543 11.2148 17.2226C11.2148 17.5273 11.2148 17.7383 11.2148 17.8555C11.1914 18.1601 11.3906 18.3008 11.8125 18.2773C13.5938 17.668 15.0234 16.6133 16.1016 15.1133C17.1562 13.6133 17.6953 11.8672 17.7188 9.87499C17.6953 8.23437 17.2969 6.76952 16.5234 5.48046C15.7266 4.1914 14.6719 3.17187 13.3594 2.42187C12.0234 1.6953 10.5352 1.3203 8.89453 1.29687ZM3.69141 13.4258C3.64453 13.4726 3.65625 13.5312 3.72656 13.6016C3.79688 13.6719 3.85547 13.6836 3.90234 13.6367C3.94922 13.5898 3.9375 13.5312 3.86719 13.4609C3.82031 13.3906 3.76172 13.3789 3.69141 13.4258ZM3.30469 13.1445C3.30469 13.1914 3.33984 13.2383 3.41016 13.2851C3.48047 13.3086 3.52734 13.2969 3.55078 13.25C3.57422 13.2031 3.55078 13.1562 3.48047 13.1094C3.41016 13.0859 3.35156 13.0976 3.30469 13.1445ZM4.46484 14.375C4.41797 14.4453 4.42969 14.5273 4.5 14.6211C4.59375 14.6914 4.67578 14.7031 4.74609 14.6562C4.76953 14.5859 4.74609 14.5039 4.67578 14.4101C4.58203 14.3398 4.51172 14.3281 4.46484 14.375ZM4.04297 13.8828C3.99609 13.9297 3.99609 14 4.04297 14.0937C4.11328 14.1641 4.18359 14.1875 4.25391 14.1641C4.30078 14.1172 4.30078 14.0469 4.25391 13.9531C4.18359 13.8594 4.11328 13.8359 4.04297 13.8828Z" fill="white"/>
</g>
<defs>
<clipPath id="clip0_83_41">
<rect width="17.4375" height="18" fill="white" transform="translate(0.28125 0.59375)"/>
</clipPath>
</defs>
</svg>
