<svg width="46" height="37" viewBox="0 0 46 37" fill="none" xmlns="http://www.w3.org/2000/svg">
<g clip-path="url(#clip0_83_28)">
<path d="M28.1328 1.4375C27.5234 1.29688 26.9375 1.36719 26.375 1.64844C25.8594 1.92969 25.5078 2.375 25.3203 2.98438L16.3203 34.4844C16.1797 35.0938 16.25 35.6797 16.5312 36.2422C16.8125 36.7578 17.2578 37.1094 17.8672 37.2969C18.4766 37.4375 19.0625 37.3672 19.625 37.0859C20.1406 36.8047 20.4922 36.3594 20.6797 35.75L29.6797 4.25C29.8203 3.64062 29.75 3.05469 29.4688 2.49219C29.1875 1.97656 28.7422 1.625 28.1328 1.4375ZM33.7578 9.875C33.3359 10.3438 33.125 10.8828 33.125 11.4922C33.125 12.1016 33.3359 12.6406 33.7578 13.1094L40.0859 19.3672L33.7578 25.625C33.3359 26.0938 33.125 26.6328 33.125 27.2422C33.125 27.8516 33.3359 28.3906 33.7578 28.8594C34.2266 29.2812 34.7656 29.4922 35.375 29.4922C35.9844 29.4922 36.5234 29.2812 36.9922 28.8594L44.8672 20.9844C45.2891 20.5156 45.5 19.9766 45.5 19.3672C45.5 18.7578 45.2891 18.2188 44.8672 17.75L36.9922 9.875C36.5234 9.45312 35.9844 9.24219 35.375 9.24219C34.7656 9.24219 34.2266 9.45312 33.7578 9.875ZM12.2422 9.875C11.7734 9.45312 11.2344 9.24219 10.625 9.24219C10.0156 9.24219 9.47656 9.45312 9.00781 9.875L1.13281 17.75C0.710938 18.2188 0.5 18.7578 0.5 19.3672C0.5 19.9766 0.710938 20.5156 1.13281 20.9844L9.00781 28.8594C9.47656 29.2812 10.0156 29.4922 10.625 29.4922C11.2344 29.4922 11.7734 29.2812 12.2422 28.8594C12.6641 28.3906 12.875 27.8516 12.875 27.2422C12.875 26.6328 12.6641 26.0938 12.2422 25.625L5.91406 19.3672L12.2422 13.1094C12.6641 12.6406 12.875 12.1016 12.875 11.4922C12.875 10.8828 12.6641 10.3438 12.2422 9.875Z" fill="#4F46E5"/>
</g>
<defs>
<clipPath id="clip0_83_28">
<rect width="45" height="36" fill="white" transform="translate(0.5 0.59375)"/>
</clipPath>
</defs>
</svg>
