<svg width="15" height="14" viewBox="0 0 15 14" fill="none" xmlns="http://www.w3.org/2000/svg">
<g clip-path="url(#clip0_636_3868)">
<path d="M10.4526 0.328125C10.5802 0.401042 10.6623 0.510417 10.6987 0.65625L11.2456 3.60938L14.1987 4.15625C14.3446 4.19271 14.4539 4.27474 14.5269 4.40234C14.5815 4.54818 14.5633 4.69401 14.4722 4.83984L12.7769 7.30078L14.4722 9.76172C14.5633 9.90755 14.5815 10.0534 14.5269 10.1992C14.4539 10.3268 14.3446 10.4089 14.1987 10.4453L11.2456 10.9922L10.6987 13.9453C10.6623 14.0911 10.5802 14.2005 10.4526 14.2734C10.3068 14.3281 10.161 14.3099 10.0151 14.2188L7.5542 12.5234L5.09326 14.2188C4.94743 14.3099 4.81071 14.3281 4.68311 14.2734C4.53727 14.2005 4.44613 14.0911 4.40967 13.9453L3.86279 10.9922L0.909668 10.4453C0.763835 10.4089 0.65446 10.3268 0.581543 10.1992C0.526855 10.0534 0.545085 9.90755 0.63623 9.76172L2.33154 7.30078L0.63623 4.83984C0.545085 4.69401 0.526855 4.55729 0.581543 4.42969C0.65446 4.28385 0.763835 4.19271 0.909668 4.15625L3.86279 3.60938L4.40967 0.65625C4.44613 0.510417 4.53727 0.401042 4.68311 0.328125C4.81071 0.273438 4.94743 0.291667 5.09326 0.382812L7.5542 2.07812L10.0151 0.382812C10.161 0.291667 10.3068 0.273438 10.4526 0.328125ZM4.9292 7.30078C4.9292 6.82682 5.04769 6.38932 5.28467 5.98828C5.52165 5.58724 5.84066 5.26823 6.2417 5.03125C6.66097 4.79427 7.09847 4.67578 7.5542 4.67578C8.00993 4.67578 8.44743 4.79427 8.8667 5.03125C9.26774 5.26823 9.58675 5.58724 9.82373 5.98828C10.0607 6.38932 10.1792 6.82682 10.1792 7.30078C10.1792 7.77474 10.0607 8.21224 9.82373 8.61328C9.58675 9.01432 9.26774 9.33333 8.8667 9.57031C8.44743 9.80729 8.00993 9.92578 7.5542 9.92578C7.09847 9.92578 6.66097 9.80729 6.2417 9.57031C5.84066 9.33333 5.52165 9.01432 5.28467 8.61328C5.04769 8.21224 4.9292 7.77474 4.9292 7.30078ZM11.0542 7.30078C11.0542 6.66276 10.8993 6.07943 10.5894 5.55078C10.2795 5.02214 9.85107 4.59375 9.3042 4.26562C8.75732 3.95573 8.17399 3.80078 7.5542 3.80078C6.93441 3.80078 6.35107 3.95573 5.8042 4.26562C5.25732 4.59375 4.82894 5.02214 4.51904 5.55078C4.20915 6.07943 4.0542 6.66276 4.0542 7.30078C4.0542 7.9388 4.20915 8.52214 4.51904 9.05078C4.82894 9.57943 5.25732 10.0078 5.8042 10.3359C6.35107 10.6458 6.93441 10.8008 7.5542 10.8008C8.17399 10.8008 8.75732 10.6458 9.3042 10.3359C9.85107 10.0078 10.2795 9.57943 10.5894 9.05078C10.8993 8.52214 11.0542 7.9388 11.0542 7.30078Z" fill="#0A0A0A"/>
</g>
<defs>
<clipPath id="clip0_636_3868">
<rect width="14" height="14" fill="white" transform="translate(0.5)"/>
</clipPath>
</defs>
</svg>
