<svg width="14" height="14" viewBox="0 0 14 14" fill="none" xmlns="http://www.w3.org/2000/svg">
<path d="M10.3359 3.19922L13.6992 6.5625C13.8997 6.76302 14 7.00911 14 7.30078C14 7.59245 13.8997 7.83854 13.6992 8.03906L10.3359 11.4023C10.1536 11.5846 9.9349 11.6758 9.67969 11.6758C9.42448 11.6758 9.20573 11.5846 9.02344 11.4023C8.84115 11.2201 8.75 11.0013 8.75 10.7461V9.05078H5.25C4.99479 9.05078 4.78516 8.96875 4.62109 8.80469C4.45703 8.64062 4.375 8.43099 4.375 8.17578V6.42578C4.375 6.17057 4.45703 5.96094 4.62109 5.79688C4.78516 5.63281 4.99479 5.55078 5.25 5.55078H8.75V3.85547C8.75 3.60026 8.84115 3.38151 9.02344 3.19922C9.20573 3.01693 9.42448 2.92578 9.67969 2.92578C9.9349 2.92578 10.1536 3.01693 10.3359 3.19922ZM4.375 2.92578H2.625C2.36979 2.92578 2.16016 3.00781 1.99609 3.17188C1.83203 3.33594 1.75 3.54557 1.75 3.80078V10.8008C1.75 11.056 1.83203 11.2656 1.99609 11.4297C2.16016 11.5938 2.36979 11.6758 2.625 11.6758H4.375C4.63021 11.6758 4.83984 11.7578 5.00391 11.9219C5.16797 12.0859 5.25 12.2956 5.25 12.5508C5.25 12.806 5.16797 13.0156 5.00391 13.1797C4.83984 13.3438 4.63021 13.4258 4.375 13.4258H2.625C1.8776 13.4076 1.25781 13.1523 0.765625 12.6602C0.273438 12.168 0.0182292 11.5482 0 10.8008V3.80078C0.0182292 3.05339 0.273438 2.43359 0.765625 1.94141C1.25781 1.44922 1.8776 1.19401 2.625 1.17578H4.375C4.63021 1.17578 4.83984 1.25781 5.00391 1.42188C5.16797 1.58594 5.25 1.79557 5.25 2.05078C5.25 2.30599 5.16797 2.51562 5.00391 2.67969C4.83984 2.84375 4.63021 2.92578 4.375 2.92578Z" fill="#DC2626"/>
</svg>
