<svg width="13" height="14" viewBox="0 0 13 14" fill="none" xmlns="http://www.w3.org/2000/svg">
<path d="M2.61719 0.300781C1.86979 0.31901 1.25 0.574219 0.757812 1.06641C0.265625 1.55859 0.0104167 2.17839 -0.0078125 2.92578V11.6758C0.0104167 12.4232 0.265625 13.043 0.757812 13.5352C1.25 14.0273 1.86979 14.2826 2.61719 14.3008H10.4922H11.3672C11.6224 14.3008 11.832 14.2188 11.9961 14.0547C12.1602 13.8906 12.2422 13.681 12.2422 13.4258C12.2422 13.1706 12.1602 12.9609 11.9961 12.7969C11.832 12.6328 11.6224 12.5508 11.3672 12.5508V10.8008C11.6224 10.8008 11.832 10.7188 11.9961 10.5547C12.1602 10.3906 12.2422 10.181 12.2422 9.92578V1.17578C12.2422 0.920573 12.1602 0.710938 11.9961 0.546875C11.832 0.382812 11.6224 0.300781 11.3672 0.300781H10.4922H2.61719ZM2.61719 10.8008H9.61719V12.5508H2.61719C2.36198 12.5508 2.15234 12.4688 1.98828 12.3047C1.82422 12.1406 1.74219 11.931 1.74219 11.6758C1.74219 11.4206 1.82422 11.2109 1.98828 11.0469C2.15234 10.8828 2.36198 10.8008 2.61719 10.8008ZM3.49219 4.23828C3.51042 3.96484 3.65625 3.81901 3.92969 3.80078H9.17969C9.45312 3.81901 9.59896 3.96484 9.61719 4.23828C9.59896 4.51172 9.45312 4.65755 9.17969 4.67578H3.92969C3.65625 4.65755 3.51042 4.51172 3.49219 4.23828ZM3.92969 5.55078H9.17969C9.45312 5.56901 9.59896 5.71484 9.61719 5.98828C9.59896 6.26172 9.45312 6.40755 9.17969 6.42578H3.92969C3.65625 6.40755 3.51042 6.26172 3.49219 5.98828C3.51042 5.71484 3.65625 5.56901 3.92969 5.55078Z" fill="#4338CA"/>
</svg>
