<svg width="14" height="16" viewBox="0 0 14 16" fill="none" xmlns="http://www.w3.org/2000/svg">
<g clip-path="url(#clip0_83_2433)">
<path d="M3 0.34375C2.14583 0.364583 1.4375 0.65625 0.875 1.21875C0.3125 1.78125 0.0208333 2.48958 0 3.34375V13.3438C0.0208333 14.1979 0.3125 14.9062 0.875 15.4688C1.4375 16.0312 2.14583 16.3229 3 16.3438H12H13C13.2917 16.3438 13.5312 16.25 13.7188 16.0625C13.9062 15.875 14 15.6354 14 15.3438C14 15.0521 13.9062 14.8125 13.7188 14.625C13.5312 14.4375 13.2917 14.3438 13 14.3438V12.3438C13.2917 12.3438 13.5312 12.25 13.7188 12.0625C13.9062 11.875 14 11.6354 14 11.3438V1.34375C14 1.05208 13.9062 0.8125 13.7188 0.625C13.5312 0.4375 13.2917 0.34375 13 0.34375H12H3ZM3 12.3438H11V14.3438H3C2.70833 14.3438 2.46875 14.25 2.28125 14.0625C2.09375 13.875 2 13.6354 2 13.3438C2 13.0521 2.09375 12.8125 2.28125 12.625C2.46875 12.4375 2.70833 12.3438 3 12.3438ZM4 4.84375C4.02083 4.53125 4.1875 4.36458 4.5 4.34375H10.5C10.8125 4.36458 10.9792 4.53125 11 4.84375C10.9792 5.15625 10.8125 5.32292 10.5 5.34375H4.5C4.1875 5.32292 4.02083 5.15625 4 4.84375ZM4.5 6.34375H10.5C10.8125 6.36458 10.9792 6.53125 11 6.84375C10.9792 7.15625 10.8125 7.32292 10.5 7.34375H4.5C4.1875 7.32292 4.02083 7.15625 4 6.84375C4.02083 6.53125 4.1875 6.36458 4.5 6.34375Z" fill="#9333EA"/>
</g>
<defs>
<clipPath id="clip0_83_2433">
<rect width="14" height="16" fill="white"/>
</clipPath>
</defs>
</svg>
