<svg width="16" height="16" viewBox="0 0 16 16" fill="none" xmlns="http://www.w3.org/2000/svg">
<g clip-path="url(#clip0_83_938)">
<path d="M12.9063 7.56259L13.2813 7.21884L12.2188 6.15634L10.2813 4.21884L9.21882 3.15634L8.84382 3.50009L8.15632 4.21884L1.93757 10.4376C1.60424 10.7709 1.36465 11.1563 1.21882 11.5938L0.12507 15.3751C0.0417364 15.6459 0.104236 15.8855 0.31257 16.0938C0.520903 16.3022 0.770903 16.3751 1.06257 16.3126L4.81257 15.1876C5.2709 15.0626 5.66674 14.8334 6.00007 14.5001L12.2188 8.28134L12.9063 7.56259ZM5.09382 12.8126L4.81257 13.5313C4.68757 13.6355 4.55215 13.7084 4.40632 13.7501L1.93757 14.4688L2.65632 12.0313C2.71882 11.8855 2.79174 11.7501 2.87507 11.6251L3.59382 11.3438V12.3438C3.61465 12.6355 3.78132 12.8022 4.09382 12.8438H5.09382V12.8126ZM11.4376 0.937593L10.9688 1.37509L10.2813 2.09384L9.90632 2.43759L10.9688 3.50009L12.9063 5.43759L13.9688 6.50009L14.3126 6.15634L15.0313 5.43759L15.5001 5.00009C15.8751 4.58343 16.0626 4.10426 16.0626 3.56259C16.0626 3.04176 15.8751 2.57301 15.5001 2.15634L14.2501 0.937593C13.8542 0.54176 13.3855 0.343843 12.8438 0.343843C12.323 0.343843 11.8542 0.54176 11.4376 0.937593ZM9.93757 6.18759L5.43757 10.6876C5.2084 10.8751 4.97924 10.8751 4.75007 10.6876C4.54174 10.4376 4.54174 10.198 4.75007 9.96884L9.25007 5.46884C9.47924 5.28134 9.7084 5.28134 9.93757 5.46884C10.1459 5.69801 10.1459 5.93759 9.93757 6.18759Z" fill="#CA8A04"/>
</g>
<defs>
<clipPath id="clip0_83_938">
<rect width="16" height="16" fill="white"/>
</clipPath>
</defs>
</svg>
