<svg width="14" height="16" viewBox="0 0 14 16" fill="none" xmlns="http://www.w3.org/2000/svg">
<path d="M2.5 3.59375C2.95833 3.55208 3.20833 3.30208 3.25 2.84375C3.20833 2.38542 2.95833 2.13542 2.5 2.09375C2.04167 2.13542 1.79167 2.38542 1.75 2.84375C1.79167 3.30208 2.04167 3.55208 2.5 3.59375ZM5 2.84375C5 3.36458 4.86458 3.82292 4.59375 4.21875C4.32292 4.63542 3.95833 4.9375 3.5 5.125V7.875C4.10417 7.52083 4.77083 7.34375 5.5 7.34375H8.5C9.0625 7.32292 9.53125 7.125 9.90625 6.75C10.2812 6.375 10.4792 5.90625 10.5 5.34375V5.125C10.0417 4.9375 9.67708 4.63542 9.40625 4.21875C9.13542 3.82292 9 3.36458 9 2.84375C9.02083 2.13542 9.26042 1.54167 9.71875 1.0625C10.1979 0.604167 10.7917 0.364583 11.5 0.34375C12.2083 0.364583 12.8021 0.604167 13.2812 1.0625C13.7396 1.54167 13.9792 2.13542 14 2.84375C14 3.36458 13.8646 3.82292 13.5938 4.21875C13.3229 4.63542 12.9583 4.9375 12.5 5.125V5.34375C12.4792 6.46875 12.0938 7.41667 11.3438 8.1875C10.5729 8.9375 9.625 9.32292 8.5 9.34375H5.5C4.9375 9.36458 4.46875 9.5625 4.09375 9.9375C3.71875 10.3125 3.52083 10.7812 3.5 11.3438V11.5625C3.95833 11.75 4.32292 12.0521 4.59375 12.4688C4.86458 12.8646 5 13.3229 5 13.8438C4.97917 14.5521 4.73958 15.1458 4.28125 15.625C3.80208 16.0833 3.20833 16.3229 2.5 16.3438C1.79167 16.3229 1.19792 16.0833 0.71875 15.625C0.260417 15.1458 0.0208333 14.5521 0 13.8438C0 13.3229 0.135417 12.8646 0.40625 12.4688C0.677083 12.0521 1.04167 11.75 1.5 11.5625V11.3438V5.125C1.04167 4.9375 0.677083 4.63542 0.40625 4.21875C0.135417 3.82292 0 3.36458 0 2.84375C0.0208333 2.13542 0.260417 1.54167 0.71875 1.0625C1.19792 0.604167 1.79167 0.364583 2.5 0.34375C3.20833 0.364583 3.80208 0.604167 4.28125 1.0625C4.73958 1.54167 4.97917 2.13542 5 2.84375ZM12.25 2.84375C12.2083 2.38542 11.9583 2.13542 11.5 2.09375C11.0417 2.13542 10.7917 2.38542 10.75 2.84375C10.7917 3.30208 11.0417 3.55208 11.5 3.59375C11.9583 3.55208 12.2083 3.30208 12.25 2.84375ZM2.5 14.5938C2.95833 14.5521 3.20833 14.3021 3.25 13.8438C3.20833 13.3854 2.95833 13.1354 2.5 13.0938C2.04167 13.1354 1.79167 13.3854 1.75 13.8438C1.79167 14.3021 2.04167 14.5521 2.5 14.5938Z" fill="#16A34A"/>
</svg>
