<svg width="13" height="13" viewBox="0 0 13 13" fill="none" xmlns="http://www.w3.org/2000/svg">
<path d="M1.99219 0.175781C1.5 0.19401 1.08984 0.367188 0.761719 0.695312C0.433594 1.02344 0.260417 1.43359 0.242188 1.92578V10.6758C0.260417 11.168 0.433594 11.5781 0.761719 11.9062C1.08984 12.2344 1.5 12.4076 1.99219 12.4258H10.7422C11.2344 12.4076 11.6445 12.2344 11.9727 11.9062C12.3008 11.5781 12.474 11.168 12.4922 10.6758V4.03125C12.4922 3.55729 12.319 3.14714 11.9727 2.80078L9.86719 0.695312C9.52083 0.348958 9.11068 0.175781 8.63672 0.175781H1.99219ZM1.99219 2.80078C1.99219 2.54557 2.07422 2.33594 2.23828 2.17188C2.40234 2.00781 2.61198 1.92578 2.86719 1.92578H8.11719C8.3724 1.92578 8.58203 2.00781 8.74609 2.17188C8.91016 2.33594 8.99219 2.54557 8.99219 2.80078V4.55078C8.99219 4.80599 8.91016 5.01562 8.74609 5.17969C8.58203 5.34375 8.3724 5.42578 8.11719 5.42578H2.86719C2.61198 5.42578 2.40234 5.34375 2.23828 5.17969C2.07422 5.01562 1.99219 4.80599 1.99219 4.55078V2.80078ZM6.36719 7.17578C7.02344 7.19401 7.52474 7.48568 7.87109 8.05078C8.19922 8.63411 8.19922 9.21745 7.87109 9.80078C7.52474 10.3659 7.02344 10.6576 6.36719 10.6758C5.71094 10.6576 5.20964 10.3659 4.86328 9.80078C4.53516 9.21745 4.53516 8.63411 4.86328 8.05078C5.20964 7.48568 5.71094 7.19401 6.36719 7.17578Z" fill="white"/>
</svg>
