<svg width="14" height="14" viewBox="0 0 14 14" fill="none" xmlns="http://www.w3.org/2000/svg">
<path d="M13.2031 4.56641C13.276 4.82161 13.2214 5.04036 13.0391 5.22266L11.8359 6.31641C11.8724 6.53516 11.8906 6.76302 11.8906 7C11.8906 7.23698 11.8724 7.46484 11.8359 7.68359L13.0391 8.77734C13.2214 8.95964 13.276 9.17839 13.2031 9.43359C13.0755 9.76172 12.9297 10.0807 12.7656 10.3906L12.6289 10.6094C12.4466 10.901 12.2461 11.1836 12.0273 11.457C11.8451 11.6576 11.6263 11.7214 11.3711 11.6484L9.83984 11.1562C9.47526 11.4479 9.07422 11.6758 8.63672 11.8398L8.30859 13.4258C8.23568 13.681 8.0625 13.8359 7.78906 13.8906C7.42448 13.9635 7.04167 14 6.64062 14C6.23958 14 5.84766 13.9635 5.46484 13.8906C5.20964 13.8359 5.04557 13.681 4.97266 13.4258L4.64453 11.8398C4.20703 11.6758 3.80599 11.4479 3.44141 11.1562L1.91016 11.6484C1.65495 11.7214 1.4362 11.6576 1.25391 11.457C1.01693 11.1836 0.816406 10.901 0.652344 10.6094L0.515625 10.3906C0.351562 10.0807 0.205729 9.77083 0.078125 9.46094C0.00520833 9.1875 0.0598958 8.95964 0.242188 8.77734L1.44531 7.71094C1.40885 7.47396 1.39062 7.23698 1.39062 7C1.39062 6.76302 1.40885 6.53516 1.44531 6.31641L0.242188 5.22266C0.0598958 5.04036 0.00520833 4.82161 0.078125 4.56641C0.205729 4.23828 0.351562 3.91927 0.515625 3.60938L0.652344 3.39062C0.816406 3.09896 1.01693 2.81641 1.25391 2.54297C1.4362 2.34245 1.65495 2.27865 1.91016 2.35156L3.44141 2.84375C3.80599 2.55208 4.20703 2.3151 4.64453 2.13281L4.97266 0.574219C5.04557 0.31901 5.21875 0.164062 5.49219 0.109375C5.85677 0.0364583 6.23958 0 6.64062 0C7.04167 0 7.43359 0.0364583 7.81641 0.109375C8.07161 0.164062 8.23568 0.31901 8.30859 0.574219L8.63672 2.13281C9.07422 2.3151 9.47526 2.55208 9.83984 2.84375L11.3711 2.35156C11.6263 2.27865 11.8451 2.34245 12.0273 2.54297C12.2643 2.81641 12.474 3.09896 12.6562 3.39062L12.7656 3.60938C12.9297 3.91927 13.0755 4.23828 13.2031 4.56641ZM6.64062 9.1875C7.46094 9.16927 8.08984 8.80469 8.52734 8.09375C8.92839 7.36458 8.92839 6.63542 8.52734 5.90625C8.08984 5.19531 7.46094 4.83073 6.64062 4.8125C5.82031 4.83073 5.19141 5.19531 4.75391 5.90625C4.35286 6.63542 4.35286 7.36458 4.75391 8.09375C5.19141 8.80469 5.82031 9.16927 6.64062 9.1875Z" fill="#737373"/>
</svg>
