<svg width="15" height="14" viewBox="0 0 15 14" fill="none" xmlns="http://www.w3.org/2000/svg">
<g clip-path="url(#clip0_636_3849)">
<path d="M13.6328 4.86719C13.7057 5.1224 13.651 5.34115 13.4687 5.52344L12.2656 6.61719C12.3021 6.83594 12.3203 7.0638 12.3203 7.30078C12.3203 7.53776 12.3021 7.76562 12.2656 7.98438L13.4687 9.07812C13.651 9.26042 13.7057 9.47917 13.6328 9.73438C13.5052 10.0625 13.3594 10.3815 13.1953 10.6914L13.0586 10.9102C12.8763 11.2018 12.6758 11.4844 12.457 11.7578C12.2747 11.9583 12.056 12.0221 11.8008 11.9492L10.2695 11.457C9.90495 11.7487 9.50391 11.9766 9.06641 12.1406L8.73828 13.7266C8.66536 13.9818 8.49219 14.1367 8.21875 14.1914C7.85417 14.2643 7.47135 14.3008 7.07031 14.3008C6.66927 14.3008 6.27734 14.2643 5.89453 14.1914C5.63932 14.1367 5.47526 13.9818 5.40234 13.7266L5.07422 12.1406C4.63672 11.9766 4.23568 11.7487 3.87109 11.457L2.33984 11.9492C2.08464 12.0221 1.86589 11.9583 1.68359 11.7578C1.44661 11.4844 1.24609 11.2018 1.08203 10.9102L0.945312 10.6914C0.78125 10.3815 0.635417 10.0716 0.507813 9.76172C0.434896 9.48828 0.489583 9.26042 0.671875 9.07812L1.875 8.01172C1.83854 7.77474 1.82031 7.53776 1.82031 7.30078C1.82031 7.0638 1.83854 6.83594 1.875 6.61719L0.671875 5.52344C0.489583 5.34115 0.434896 5.1224 0.507813 4.86719C0.635417 4.53906 0.78125 4.22005 0.945312 3.91016L1.08203 3.69141C1.24609 3.39974 1.44661 3.11719 1.68359 2.84375C1.86589 2.64323 2.08464 2.57943 2.33984 2.65234L3.87109 3.14453C4.23568 2.85286 4.63672 2.61589 5.07422 2.43359L5.40234 0.875C5.47526 0.619792 5.64844 0.464844 5.92187 0.410156C6.28646 0.33724 6.66927 0.300781 7.07031 0.300781C7.47135 0.300781 7.86328 0.33724 8.24609 0.410156C8.5013 0.464844 8.66536 0.619792 8.73828 0.875L9.06641 2.43359C9.50391 2.61589 9.90495 2.85286 10.2695 3.14453L11.8008 2.65234C12.056 2.57943 12.2747 2.64323 12.457 2.84375C12.694 3.11719 12.9036 3.39974 13.0859 3.69141L13.1953 3.91016C13.3594 4.22005 13.5052 4.53906 13.6328 4.86719ZM7.07031 9.48828C7.89062 9.47005 8.51953 9.10547 8.95703 8.39453C9.35807 7.66536 9.35807 6.9362 8.95703 6.20703C8.51953 5.49609 7.89062 5.13151 7.07031 5.11328C6.25 5.13151 5.62109 5.49609 5.18359 6.20703C4.78255 6.9362 4.78255 7.66536 5.18359 8.39453C5.62109 9.10547 6.25 9.47005 7.07031 9.48828Z" fill="#4338CA"/>
</g>
<defs>
<clipPath id="clip0_636_3849">
<rect width="14" height="14" fill="white" transform="translate(0.398438)"/>
</clipPath>
</defs>
</svg>
