<svg width="18" height="14" viewBox="0 0 18 14" fill="none" xmlns="http://www.w3.org/2000/svg">
<path d="M3.13281 3.80078C3.13281 3.16276 3.28776 2.57943 3.59766 2.05078C3.90755 1.52214 4.33594 1.09375 4.88281 0.765625C5.42969 0.455729 6.01302 0.300781 6.63281 0.300781C7.2526 0.300781 7.83594 0.455729 8.38281 0.765625C8.92969 1.09375 9.35807 1.52214 9.66797 2.05078C9.97786 2.57943 10.1328 3.16276 10.1328 3.80078C10.1328 4.4388 9.97786 5.02214 9.66797 5.55078C9.35807 6.07943 8.92969 6.50781 8.38281 6.83594C7.83594 7.14583 7.2526 7.30078 6.63281 7.30078C6.01302 7.30078 5.42969 7.14583 4.88281 6.83594C4.33594 6.50781 3.90755 6.07943 3.59766 5.55078C3.28776 5.02214 3.13281 4.4388 3.13281 3.80078ZM0.507812 13.4805C0.544271 12.1133 1.01823 10.9648 1.92969 10.0352C2.85938 9.1237 4.00781 8.64974 5.375 8.61328H7.89062C9.25781 8.64974 10.4062 9.1237 11.3359 10.0352C12.2474 10.9648 12.7214 12.1133 12.7578 13.4805C12.7578 13.7174 12.6758 13.9089 12.5117 14.0547C12.3659 14.2188 12.1745 14.3008 11.9375 14.3008H1.32812C1.09115 14.3008 0.89974 14.2188 0.753906 14.0547C0.589844 13.9089 0.507812 13.7174 0.507812 13.4805ZM13.3867 4.21094C13.6966 3.95573 14.0065 3.95573 14.3164 4.21094L15.6016 5.49609L16.8867 4.21094C17.1966 3.95573 17.5065 3.95573 17.8164 4.21094C18.0716 4.52083 18.0716 4.83073 17.8164 5.14062L16.5312 6.42578L17.8164 7.71094C18.0716 8.02083 18.0716 8.33073 17.8164 8.64062C17.5065 8.89583 17.1966 8.89583 16.8867 8.64062L15.6016 7.35547L14.3164 8.64062C14.0065 8.89583 13.6966 8.89583 13.3867 8.64062C13.1315 8.33073 13.1315 8.02083 13.3867 7.71094L14.6719 6.42578L13.3867 5.14062C13.1315 4.83073 13.1315 4.52083 13.3867 4.21094Z" fill="#FAFAFA"/>
</svg>
