<svg width="15" height="13" viewBox="0 0 15 13" fill="none" xmlns="http://www.w3.org/2000/svg">
<path d="M1.50781 0.175781C1.76302 0.175781 1.97266 0.257812 2.13672 0.421875C2.30078 0.585938 2.38281 0.795573 2.38281 1.05078V10.2383C2.40104 10.5117 2.54688 10.6576 2.82031 10.6758H13.7578C14.013 10.6758 14.2227 10.7578 14.3867 10.9219C14.5508 11.0859 14.6328 11.2956 14.6328 11.5508C14.6328 11.806 14.5508 12.0156 14.3867 12.1797C14.2227 12.3438 14.013 12.4258 13.7578 12.4258H2.82031C2.20052 12.4076 1.68099 12.1979 1.26172 11.7969C0.860677 11.3776 0.651042 10.8581 0.632812 10.2383V1.05078C0.632812 0.795573 0.714844 0.585938 0.878906 0.421875C1.04297 0.257812 1.2526 0.175781 1.50781 0.175781ZM4.13281 2.80078C4.13281 2.54557 4.21484 2.33594 4.37891 2.17188C4.54297 2.00781 4.7526 1.92578 5.00781 1.92578H10.2578C10.513 1.92578 10.7227 2.00781 10.8867 2.17188C11.0508 2.33594 11.1328 2.54557 11.1328 2.80078C11.1328 3.05599 11.0508 3.26562 10.8867 3.42969C10.7227 3.59375 10.513 3.67578 10.2578 3.67578H5.00781C4.7526 3.67578 4.54297 3.59375 4.37891 3.42969C4.21484 3.26562 4.13281 3.05599 4.13281 2.80078ZM5.00781 4.55078H8.50781C8.76302 4.55078 8.97266 4.63281 9.13672 4.79688C9.30078 4.96094 9.38281 5.17057 9.38281 5.42578C9.38281 5.68099 9.30078 5.89062 9.13672 6.05469C8.97266 6.21875 8.76302 6.30078 8.50781 6.30078H5.00781C4.7526 6.30078 4.54297 6.21875 4.37891 6.05469C4.21484 5.89062 4.13281 5.68099 4.13281 5.42578C4.13281 5.17057 4.21484 4.96094 4.37891 4.79688C4.54297 4.63281 4.7526 4.55078 5.00781 4.55078ZM5.00781 7.17578H12.0078C12.263 7.17578 12.4727 7.25781 12.6367 7.42188C12.8008 7.58594 12.8828 7.79557 12.8828 8.05078C12.8828 8.30599 12.8008 8.51562 12.6367 8.67969C12.4727 8.84375 12.263 8.92578 12.0078 8.92578H5.00781C4.7526 8.92578 4.54297 8.84375 4.37891 8.67969C4.21484 8.51562 4.13281 8.30599 4.13281 8.05078C4.13281 7.79557 4.21484 7.58594 4.37891 7.42188C4.54297 7.25781 4.7526 7.17578 5.00781 7.17578Z" fill="#4338CA"/>
</svg>
