<svg width="25" height="33" viewBox="0 0 25 33" fill="none" xmlns="http://www.w3.org/2000/svg">
<g clip-path="url(#clip0_83_50)">
<path d="M4.92969 14.625C5.30469 13.5625 5.89844 12.625 6.71094 11.8125C8.24219 10.3438 10.0078 9.60938 12.0078 9.60938C14.0078 9.60938 15.7734 10.3438 17.3047 11.8125L18.1016 12.6094H16.5078C16.0703 12.6094 15.7109 12.75 15.4297 13.0312C15.1484 13.3125 15.0078 13.6719 15.0078 14.1094C15.0078 14.5469 15.1484 14.9062 15.4297 15.1875C15.7109 15.4688 16.0703 15.6094 16.5078 15.6094H21.7578C22.1953 15.6094 22.5547 15.4688 22.8359 15.1875C23.1172 14.9062 23.2578 14.5469 23.2578 14.1094V8.85938C23.2578 8.42188 23.1172 8.0625 22.8359 7.78125C22.5547 7.5 22.1953 7.35938 21.7578 7.35938C21.3203 7.35938 20.9609 7.5 20.6797 7.78125C20.3984 8.0625 20.2578 8.42188 20.2578 8.85938V10.5L19.4141 9.70312C18.0391 8.32812 16.4609 7.40625 14.6797 6.9375C12.8984 6.5 11.1172 6.5 9.33594 6.9375C7.55469 7.40625 5.97656 8.32812 4.60156 9.70312C3.44531 10.8594 2.61719 12.1562 2.11719 13.5938C1.99219 14 2.00781 14.3906 2.16406 14.7656C2.35156 15.1094 2.63281 15.3594 3.00781 15.5156C3.41406 15.6406 3.80469 15.625 4.17969 15.4688C4.52344 15.2812 4.77344 15 4.92969 14.625ZM1.83594 18.6562C1.58594 18.75 1.36719 18.8906 1.17969 19.0781C0.992188 19.2656 0.867188 19.4844 0.804688 19.7344C0.804688 19.7656 0.789062 19.8125 0.757812 19.875C0.757812 19.9688 0.757812 20.0469 0.757812 20.1094V25.3594C0.757812 25.7969 0.898438 26.1562 1.17969 26.4375C1.46094 26.7188 1.82031 26.8594 2.25781 26.8594C2.69531 26.8594 3.05469 26.7188 3.33594 26.4375C3.61719 26.1562 3.75781 25.7969 3.75781 25.3594V23.7188L4.60156 24.5156C5.97656 25.8906 7.55469 26.8125 9.33594 27.2812C11.1172 27.7187 12.8984 27.7187 14.6797 27.2812C16.4609 26.8125 18.0391 25.8906 19.4141 24.5156C20.5703 23.3594 21.3984 22.0625 21.8984 20.625C22.0234 20.2188 22.0078 19.8281 21.8516 19.4531C21.6641 19.1094 21.3828 18.8594 21.0078 18.7031C20.6016 18.5781 20.2109 18.5938 19.8359 18.75C19.4922 18.9375 19.2422 19.2188 19.0859 19.5938C18.7109 20.625 18.1172 21.5625 17.3047 22.4062C15.7734 23.875 14.0078 24.6094 12.0078 24.6094C10.0078 24.6094 8.24219 23.875 6.71094 22.4062L5.91406 21.6094H7.50781C7.94531 21.6094 8.30469 21.4688 8.58594 21.1875C8.86719 20.9062 9.00781 20.5469 9.00781 20.1094C9.00781 19.6719 8.86719 19.3125 8.58594 19.0312C8.30469 18.75 7.94531 18.6094 7.50781 18.6094H2.25781C2.19531 18.6094 2.13281 18.6094 2.07031 18.6094C1.97656 18.6406 1.89844 18.6562 1.83594 18.6562Z" fill="#16A34A"/>
</g>
<defs>
<clipPath id="clip0_83_50">
<rect width="24" height="24" fill="white" transform="translate(0.757812 4.59375)"/>
</clipPath>
</defs>
</svg>
