<svg width="9" height="8" viewBox="0 0 9 8" fill="none" xmlns="http://www.w3.org/2000/svg">
<path d="M8.17969 1.79688C8.32031 1.64062 8.39062 1.46094 8.39062 1.25781C8.39062 1.05469 8.32031 0.875 8.17969 0.71875C8.02344 0.578125 7.84375 0.507812 7.64062 0.507812C7.4375 0.507812 7.25781 0.578125 7.10156 0.71875L4.64062 3.20312L2.17969 0.71875C2.02344 0.578125 1.84375 0.507812 1.64062 0.507812C1.4375 0.507812 1.25781 0.578125 1.10156 0.71875C0.960938 0.875 0.890625 1.05469 0.890625 1.25781C0.890625 1.46094 0.960938 1.64062 1.10156 1.79688L3.58594 4.25781L1.10156 6.71875C0.960938 6.875 0.890625 7.05469 0.890625 7.25781C0.890625 7.46094 0.960938 7.64062 1.10156 7.79688C1.25781 7.9375 1.4375 8.00781 1.64062 8.00781C1.84375 8.00781 2.02344 7.9375 2.17969 7.79688L4.64062 5.3125L7.10156 7.79688C7.25781 7.9375 7.4375 8.00781 7.64062 8.00781C7.84375 8.00781 8.02344 7.9375 8.17969 7.79688C8.32031 7.64062 8.39062 7.46094 8.39062 7.25781C8.39062 7.05469 8.32031 6.875 8.17969 6.71875L5.69531 4.25781L8.17969 1.79688Z" fill="#171717"/>
</svg>
